<svg xmlns="http://www.w3.org/2000/svg" xml:space="preserve" width="800" height="800" viewBox="0 0 512.107 512.107"><path fill="#FFFFFF" d="M409.653 192.107v-3.413a5.01 5.01 0 0 0-.363-1.855 38.36 38.36 0 0 0-1.98-8.054c-4.988-15.344-19.528-25.931-36.057-25.931-8.431 0-16.025 2.502-21.967 6.677a38.387 38.387 0 0 0-1.709-6.346c-4.988-15.344-19.528-25.931-36.057-25.931-7.68 0-15.36 2.56-21.333 6.827V39.36c0-18.773-12.8-34.987-29.867-38.4-11.947-2.56-23.04 0-32.427 7.68s-14.507 17.92-14.507 29.867V144.32c-1.707-1.707-3.413-3.413-5.973-4.267-11.947-5.973-24.747-4.267-35.84 3.413-11.093 7.68-17.92 21.333-17.92 36.693v56.32l-12.8 7.68a7.482 7.482 0 0 0-.788.37c-25.896 11.997-37.612 32.41-37.612 67.043v25.6c0 69.12 45.227 102.4 59.733 111.787v24.747c0 21.333 17.067 38.4 38.4 38.4H349.92c19.627 0 34.133-20.48 34.133-38.4V446.4c25.6-34.987 25.6-41.813 25.6-110.08V192.107zm-119.466-25.6c0-11.947 9.387-21.333 21.333-21.333s21.333 9.387 21.333 21.333V260.374c0 11.947-9.387 21.333-21.333 21.333s-21.333-9.387-21.333-21.333v-93.867zm59.733 25.6c0-11.947 9.387-21.333 21.333-21.333.705 0 1.4.038 2.086.102 3.924.381 7.56 1.831 10.601 4.009.211.155.425.306.63.469.19.147.373.301.557.453 4.582 3.886 7.458 9.697 7.458 16.3v51.2c0 11.947-9.387 21.333-21.333 21.333s-21.333-9.387-21.333-21.333v-51.2zm-179.2-11.947c0-9.387 4.267-17.92 11.093-23.04 3.413-2.56 6.827-3.413 10.24-3.413 2.56 0 5.12.853 6.827 1.707 8.533 4.267 14.507 14.507 14.507 23.893v8.54c-4.844 2.706-10.022 7.028-15.36 13.647-6.318 7.776-15.688 16.105-27.307 24.357V180.16zm200.483 255.147h-12.75c-5.12 0-8.533 3.413-8.533 8.533s3.413 8.533 8.533 8.533h8.533v21.333c0 9.387-7.68 21.333-17.067 21.333H200.587c-11.947 0-21.333-9.387-21.333-21.333v-17.448c9.133 3.002 18.425 4.648 27.307 4.648 6.827 0 14.507-.853 20.48-3.413 12.8-4.267 22.187-14.507 28.16-27.307 1.707-4.267 0-9.387-4.267-11.093s-9.387 0-11.093 4.267c-4.267 8.533-10.24 14.507-18.773 17.92-14.57 5.666-32.207 1.35-44.908-4.207a11.225 11.225 0 0 0-1.172-.913c-2.56-.853-55.467-29.013-55.467-98.987v-25.6c0-28.16 8.533-43.52 29.013-52.053 0-.198.049-.346.12-.463.247-.118.492-.245.734-.39 27.307-14.507 50.347-31.573 62.293-46.933 5.973-6.827 14.507-14.507 22.187-9.387 8.533 5.973 12.8 23.04 7.68 32.427-15.36 26.453-53.76 57.173-74.24 62.293-4.267.853-6.827 5.973-5.973 10.24 1.707 3.413 5.12 5.973 8.533 5.973h1.707c11.28-3.223 26.744-12.155 41.813-23.916v9.41c0 5.12 3.413 8.533 8.533 8.533 5.12 0 8.533-3.413 8.533-8.533v-24.182c10.287-9.884 19.417-20.685 25.6-31.285 9.387-17.067 3.413-43.52-12.8-54.613-2.143-1.429-6.685-4.046-12.8-4.675V38.507c0-6.827 2.56-12.8 7.68-17.067s11.093-5.973 17.92-4.267c10.24 2.56 17.067 11.947 17.067 22.187v221.014c0 21.333 17.067 38.4 38.4 38.4 16.666 0 30.728-10.416 36.083-25.145 6.504 5.065 14.698 8.078 23.65 8.078 7.918 0 15.245-2.355 21.333-6.403v61.869c0 65.784-.004 68.974-21.384 98.134z"/></svg>
